<?xml version="1.0" encoding="UTF-8" standalone="no"?>
<!-- Created with Inkscape (http://www.inkscape.org/) -->

<svg
   xmlns:dc="http://purl.org/dc/elements/1.1/"
   xmlns:cc="http://creativecommons.org/ns#"
   xmlns:rdf="http://www.w3.org/1999/02/22-rdf-syntax-ns#"
   xmlns:svg="http://www.w3.org/2000/svg"
   xmlns="http://www.w3.org/2000/svg"
   xmlns:sodipodi="http://sodipodi.sourceforge.net/DTD/sodipodi-0.dtd"
   xmlns:inkscape="http://www.inkscape.org/namespaces/inkscape"
   width="210mm"
   height="297mm"
   viewBox="0 0 210 297"
   version="1.1"
   id="svg8"
   inkscape:version="0.92.4 (5da689c313, 2019-01-14)"
   sodipodi:docname="trackintel_logo.svg">
  <defs
     id="defs2" />
  <sodipodi:namedview
     id="base"
     pagecolor="#ffffff"
     bordercolor="#666666"
     borderopacity="1.0"
     inkscape:pageopacity="0.0"
     inkscape:pageshadow="2"
     inkscape:zoom="0.49497475"
     inkscape:cx="465.2568"
     inkscape:cy="1113.175"
     inkscape:document-units="mm"
     inkscape:current-layer="layer1"
     showgrid="false"
     inkscape:snap-global="false"
     inkscape:window-width="2560"
     inkscape:window-height="1417"
     inkscape:window-x="2992"
     inkscape:window-y="-8"
     inkscape:window-maximized="1" />
  <metadata
     id="metadata5">
    <rdf:RDF>
      <cc:Work
         rdf:about="">
        <dc:format>image/svg+xml</dc:format>
        <dc:type
           rdf:resource="http://purl.org/dc/dcmitype/StillImage" />
        <dc:title />
      </cc:Work>
    </rdf:RDF>
  </metadata>
  <g
     inkscape:label="Layer 1"
     inkscape:groupmode="layer"
     id="layer1">
    <g
       id="g873"
       inkscape:export-filename="C:\Data\Programming\PhD\mie-lab\trackintel\doc\_static\trackintel_logo.png"
       inkscape:export-xdpi="143.92999"
       inkscape:export-ydpi="143.92999">
      <rect
         style="font-style:normal;font-weight:normal;font-size:123.61361694px;line-height:1.25;font-family:sans-serif;letter-spacing:0px;word-spacing:0px;opacity:1;fill:none;fill-opacity:1;stroke:none;stroke-width:0.26499999;stroke-linecap:round;stroke-linejoin:round;stroke-miterlimit:4;stroke-dasharray:none;stroke-dashoffset:0;stroke-opacity:1"
         id="rect4561"
         width="150"
         height="150"
         x="29.459949"
         y="30.627674" />
      <g
         transform="translate(-7.9375004)"
         id="g862">
        <g
           style="font-style:normal;font-weight:normal;font-size:123.61361694px;line-height:1.25;font-family:sans-serif;letter-spacing:0px;word-spacing:0px;fill:#000000;fill-opacity:1;stroke:none;stroke-width:3.09034038"
           transform="matrix(1.2039157,0,0,1.2039157,-28.484417,-52.227177)"
           id="g4550">
          <path
             sodipodi:nodetypes="zccccczzczz"
             inkscape:connector-curvature="0"
             id="path4527"
             style="font-style:normal;font-variant:normal;font-weight:normal;font-stretch:normal;font-family:Italianno;-inkscape-font-specification:Italianno;fill:#2980b9;fill-opacity:1;stroke-width:3.09034038"
             d="m 130.31397,124.66187 c 8.52483,-10.25158 22.89984,-27.529231 26.90391,-32.191351 0.12302,-0.14324 -1.3951,0.62058 -1.28026,0.48733 1.96266,-2.27733 4.38141,-3.86931 4.38141,-3.86931 0,0 -1.58699,3.25951 -2.90279,4.95673 -0.12262,0.15816 0.25144,-1.44894 0.12006,-1.28016 -4.98791,6.40756 -19.11257,23.758041 -26.37115,32.864081 -7.25858,9.10604 -20.88503,21.32446 -41.122648,21.33224 -20.237621,0.008 -28.960102,-8.29636 -28.960102,-8.29636 0,0 11.270469,7.07845 29.252241,7.17018 17.981769,0.0917 31.454499,-10.9218 39.979329,-21.17338 z" />
          <path
             inkscape:connector-curvature="0"
             d="m 86.698875,120.06885 3.832022,0.12361 q 4.820931,-6.55152 9.641863,-17.18229 1.11252,-0.12361 3.46118,-1.35975 2.34866,-1.35975 3.33757,-2.348659 1.11252,-1.112522 1.35975,-1.112522 0.37084,0 0.37084,0.370841 0,0.247227 -0.98891,1.359749 -0.98891,1.112521 -4.94454,7.416821 -3.832027,6.18068 -7.045981,12.85581 h 10.012701 q 1.23614,0 1.35975,0.37084 0.12362,0.37084 -0.86529,0.74169 -0.8653,0.24722 -1.73059,0.49445 -0.74169,0.24723 -3.46119,0.49445 -6.057063,0.37085 -7.540426,2.47228 -1.35975,1.97781 -4.820931,10.38354 -6.427908,15.57532 -1.977818,15.57532 3.832022,0 14.091955,-11.86691 l 2.34866,-2.96673 q 0.24722,0.37084 0.24722,1.23614 0,0.74168 -1.35975,2.59588 -11.372449,14.58641 -20.519857,14.58641 -2.966727,0 -2.966727,-2.34866 0,-2.96672 4.820931,-12.60859 l 6.675136,-14.95724 q -12.608589,15.32808 -12.855817,15.69893 -0.865295,1.23613 -0.865295,-0.24723 0,-0.98891 0.618068,-1.73059 8.405726,-10.50716 11.61968,-14.71002 -1.112522,0 -6.675135,0.61806 -1.236136,0 0.865295,-1.97781 2.225045,-1.97782 3.090341,-1.97782 z"
             style="font-style:normal;font-variant:normal;font-weight:normal;font-stretch:normal;font-family:Italianno;-inkscape-font-specification:Italianno;fill:#1a1a1a;fill-opacity:1;stroke-width:3.09034038"
             id="path4522" />
          <path
             d="m 119.73655,146.64578 c -1.56577,1.73059 -3.74962,3.46118 -6.55153,5.19177 -2.71949,1.64818 -5.23297,2.47227 -7.54043,2.47227 -2.22504,0 -3.33756,-0.78289 -3.33756,-2.34866 0,-1.48336 0.41204,-3.13154 1.23613,-4.94454 0.57687,-1.31855 3.87323,-8.32332 9.88909,-21.01432 -4.36768,4.69732 -8.32332,9.39464 -11.86691,14.09196 -0.57686,0.82409 -0.86529,0.74168 -0.86529,-0.24723 0,-0.65927 0.20602,-1.23614 0.61807,-1.73059 5.85104,-7.252 10.34233,-13.14425 13.47388,-17.67675 4.12045,-0.57687 6.59273,-1.23614 7.41682,-1.97782 0.82409,-0.74168 1.27734,-0.78288 1.35975,-0.12361 0,0.32963 -0.20602,0.74168 -0.61807,1.23613 -0.32963,0.41205 -3.6672,6.59273 -10.0127,18.54205 -2.80191,5.27418 -4.20287,8.90018 -4.20287,10.878 0,1.15373 0.57686,1.73059 1.73059,1.73059 2.55469,0 7.1696,-3.95564 13.84473,-11.86691 l 2.7195,-3.09034 c 21.61047,-26.14956 33.18605,-40.002722 38.12563,-45.754102 0.12302,-0.143242 -1.3951,0.620577 -1.28026,0.487322 1.96266,-2.277328 4.38141,-3.869307 4.38141,-3.869307 0,0 -1.58699,3.259507 -2.90279,4.956728 -0.12262,0.158165 0.25144,-1.448942 0.12006,-1.280162 -9.29178,11.936391 -40.17157,50.009741 -45.73725,56.337521 z m 6.92236,-39.9272 c -1.97782,0 -2.96673,-1.07132 -2.96673,-3.21396 0,-0.98891 0.53566,-1.8542 1.60698,-2.59588 1.15373,-0.74168 2.14264,-1.112524 2.96673,-1.112524 0.9065,0 1.60698,0.370844 2.10143,1.112524 0.49445,0.65927 0.74168,1.19493 0.74168,1.60698 0,1.48336 -0.53566,2.55468 -1.60698,3.21395 -1.07132,0.65927 -2.01902,0.98891 -2.84311,0.98891 z"
             style="font-style:normal;font-variant:normal;font-weight:normal;font-stretch:normal;font-family:Italianno;-inkscape-font-specification:Italianno;fill:#1a1a1a;fill-opacity:1;stroke-width:3.09034038"
             id="path4524"
             inkscape:connector-curvature="0"
             sodipodi:nodetypes="ccsscccsccccccssccccccccsscscsss" />
          <path
             d="m 133.52677,135.62318 c 5.10187,-6.07045 22.89984,-27.52923 26.90391,-32.19135 0.12302,-0.14324 -1.3951,0.62058 -1.28026,0.48733 1.96266,-2.27733 4.38141,-3.86931 4.38141,-3.86931 0,0 -1.58699,3.25951 -2.90279,4.95673 -0.12262,0.15816 0.25144,-1.44894 0.12006,-1.28016 -4.98791,6.40756 -22.98831,28.80348 -26.37115,32.86408 -3.38284,4.0606 -7.06434,12.18494 -4.86598,14.74687 2.19836,2.56193 12.47895,-3.38999 12.47895,-3.38999 0,0 -10.36062,7.1307 -13.19469,4.27034 -2.83406,-2.86035 -0.37133,-10.52409 4.73054,-16.59454 z"
             style="font-style:normal;font-variant:normal;font-weight:normal;font-stretch:normal;font-family:Italianno;-inkscape-font-specification:Italianno;fill:#e67e22;fill-opacity:1;stroke-width:3.09034038"
             id="path4529"
             inkscape:connector-curvature="0"
             sodipodi:nodetypes="zccccczzczz" />
        </g>
        <text
           id="text4544"
           y="158.62672"
           x="55.069374"
           style="font-style:normal;font-variant:normal;font-weight:normal;font-stretch:normal;font-size:27.92730713px;line-height:1.25;font-family:'TeX Gyre Pagella';-inkscape-font-specification:'TeX Gyre Pagella';letter-spacing:0px;word-spacing:0px;fill:#1a1a1a;fill-opacity:1;stroke:none;stroke-width:2.15762186"
           xml:space="preserve"><tspan
             style="font-style:normal;font-variant:normal;font-weight:normal;font-stretch:normal;font-family:'TeX Gyre Pagella';-inkscape-font-specification:'TeX Gyre Pagella';fill:#1a1a1a;fill-opacity:1;stroke-width:2.15762186"
             y="158.62672"
             x="55.069374"
             id="tspan4542"
             sodipodi:role="line">trackintel</tspan></text>
      </g>
    </g>
    <g
       id="g4604"
       inkscape:export-filename="C:\Data\Programming\PhD\mie-lab\trackintel-dev-fork\docs\_static\trackintel_logo_squash.png"
       inkscape:export-xdpi="143.92999"
       inkscape:export-ydpi="143.92999">
      <rect
         y="50.282433"
         x="251.70995"
         height="111.44644"
         width="196.86903"
         id="rect4525"
         style="font-style:normal;font-weight:normal;font-size:123.61361694px;line-height:1.25;font-family:sans-serif;letter-spacing:0px;word-spacing:0px;opacity:1;fill:none;fill-opacity:1;stroke:none;stroke-width:0.26168352;stroke-linecap:round;stroke-linejoin:round;stroke-miterlimit:4;stroke-dasharray:none;stroke-dashoffset:0;stroke-opacity:1" />
      <g
         id="g4542"
         transform="translate(237.74702)">
        <g
           id="g4536"
           transform="matrix(1.2039157,0,0,1.2039157,-28.484417,-52.227177)"
           style="font-style:normal;font-weight:normal;font-size:123.61361694px;line-height:1.25;font-family:sans-serif;letter-spacing:0px;word-spacing:0px;fill:#000000;fill-opacity:1;stroke:none;stroke-width:3.09034038">
          <path
             d="m 130.31397,124.66187 c 8.52483,-10.25158 22.89984,-27.529231 26.90391,-32.191351 0.12302,-0.14324 -1.3951,0.62058 -1.28026,0.48733 1.96266,-2.27733 4.38141,-3.86931 4.38141,-3.86931 0,0 -1.58699,3.25951 -2.90279,4.95673 -0.12262,0.15816 0.25144,-1.44894 0.12006,-1.28016 -4.98791,6.40756 -19.11257,23.758041 -26.37115,32.864081 -7.25858,9.10604 -20.88503,21.32446 -41.122648,21.33224 -20.237621,0.008 -28.960102,-8.29636 -28.960102,-8.29636 0,0 11.270469,7.07845 29.252241,7.17018 17.981769,0.0917 31.454499,-10.9218 39.979329,-21.17338 z"
             style="font-style:normal;font-variant:normal;font-weight:normal;font-stretch:normal;font-family:Italianno;-inkscape-font-specification:Italianno;fill:#62e0ff;fill-opacity:1;stroke-width:3.09034038"
             id="path4528"
             inkscape:connector-curvature="0"
             sodipodi:nodetypes="zccccczzczz" />
          <path
             id="path4530"
             style="font-style:normal;font-variant:normal;font-weight:normal;font-stretch:normal;font-family:Italianno;-inkscape-font-specification:Italianno;fill:#1a1a1a;fill-opacity:1;stroke-width:3.09034038"
             d="m 86.698875,120.06885 3.832022,0.12361 q 4.820931,-6.55152 9.641863,-17.18229 1.11252,-0.12361 3.46118,-1.35975 2.34866,-1.35975 3.33757,-2.348659 1.11252,-1.112522 1.35975,-1.112522 0.37084,0 0.37084,0.370841 0,0.247227 -0.98891,1.359749 -0.98891,1.112521 -4.94454,7.416821 -3.832027,6.18068 -7.045981,12.85581 h 10.012701 q 1.23614,0 1.35975,0.37084 0.12362,0.37084 -0.86529,0.74169 -0.8653,0.24722 -1.73059,0.49445 -0.74169,0.24723 -3.46119,0.49445 -6.057063,0.37085 -7.540426,2.47228 -1.35975,1.97781 -4.820931,10.38354 -6.427908,15.57532 -1.977818,15.57532 3.832022,0 14.091955,-11.86691 l 2.34866,-2.96673 q 0.24722,0.37084 0.24722,1.23614 0,0.74168 -1.35975,2.59588 -11.372449,14.58641 -20.519857,14.58641 -2.966727,0 -2.966727,-2.34866 0,-2.96672 4.820931,-12.60859 l 6.675136,-14.95724 q -12.608589,15.32808 -12.855817,15.69893 -0.865295,1.23613 -0.865295,-0.24723 0,-0.98891 0.618068,-1.73059 8.405726,-10.50716 11.61968,-14.71002 -1.112522,0 -6.675135,0.61806 -1.236136,0 0.865295,-1.97781 2.225045,-1.97782 3.090341,-1.97782 z"
             inkscape:connector-curvature="0" />
          <path
             sodipodi:nodetypes="ccsscccsccccccssccccccccsscscsss"
             inkscape:connector-curvature="0"
             id="path4532"
             style="font-style:normal;font-variant:normal;font-weight:normal;font-stretch:normal;font-family:Italianno;-inkscape-font-specification:Italianno;fill:#1a1a1a;fill-opacity:1;stroke-width:3.09034038"
             d="m 119.73655,146.64578 c -1.56577,1.73059 -3.74962,3.46118 -6.55153,5.19177 -2.71949,1.64818 -5.23297,2.47227 -7.54043,2.47227 -2.22504,0 -3.33756,-0.78289 -3.33756,-2.34866 0,-1.48336 0.41204,-3.13154 1.23613,-4.94454 0.57687,-1.31855 3.87323,-8.32332 9.88909,-21.01432 -4.36768,4.69732 -8.32332,9.39464 -11.86691,14.09196 -0.57686,0.82409 -0.86529,0.74168 -0.86529,-0.24723 0,-0.65927 0.20602,-1.23614 0.61807,-1.73059 5.85104,-7.252 10.34233,-13.14425 13.47388,-17.67675 4.12045,-0.57687 6.59273,-1.23614 7.41682,-1.97782 0.82409,-0.74168 1.27734,-0.78288 1.35975,-0.12361 0,0.32963 -0.20602,0.74168 -0.61807,1.23613 -0.32963,0.41205 -3.6672,6.59273 -10.0127,18.54205 -2.80191,5.27418 -4.20287,8.90018 -4.20287,10.878 0,1.15373 0.57686,1.73059 1.73059,1.73059 2.55469,0 7.1696,-3.95564 13.84473,-11.86691 l 2.7195,-3.09034 c 21.61047,-26.14956 33.18605,-40.002722 38.12563,-45.754102 0.12302,-0.143242 -1.3951,0.620577 -1.28026,0.487322 1.96266,-2.277328 4.38141,-3.869307 4.38141,-3.869307 0,0 -1.58699,3.259507 -2.90279,4.956728 -0.12262,0.158165 0.25144,-1.448942 0.12006,-1.280162 -9.29178,11.936391 -40.17157,50.009741 -45.73725,56.337521 z m 6.92236,-39.9272 c -1.97782,0 -2.96673,-1.07132 -2.96673,-3.21396 0,-0.98891 0.53566,-1.8542 1.60698,-2.59588 1.15373,-0.74168 2.14264,-1.112524 2.96673,-1.112524 0.9065,0 1.60698,0.370844 2.10143,1.112524 0.49445,0.65927 0.74168,1.19493 0.74168,1.60698 0,1.48336 -0.53566,2.55468 -1.60698,3.21395 -1.07132,0.65927 -2.01902,0.98891 -2.84311,0.98891 z" />
          <path
             sodipodi:nodetypes="zccccczzczz"
             inkscape:connector-curvature="0"
             id="path4534"
             style="font-style:normal;font-variant:normal;font-weight:normal;font-stretch:normal;font-family:Italianno;-inkscape-font-specification:Italianno;fill:#f0ee7c;fill-opacity:1;stroke-width:3.09034038"
             d="m 133.52677,135.62318 c 5.10187,-6.07045 22.89984,-27.52923 26.90391,-32.19135 0.12302,-0.14324 -1.3951,0.62058 -1.28026,0.48733 1.96266,-2.27733 4.38141,-3.86931 4.38141,-3.86931 0,0 -1.58699,3.25951 -2.90279,4.95673 -0.12262,0.15816 0.25144,-1.44894 0.12006,-1.28016 -4.98791,6.40756 -22.98831,28.80348 -26.37115,32.86408 -3.38284,4.0606 -7.06434,12.18494 -4.86598,14.74687 2.19836,2.56193 12.47895,-3.38999 12.47895,-3.38999 0,0 -10.36062,7.1307 -13.19469,4.27034 -2.83406,-2.86035 -0.37133,-10.52409 4.73054,-16.59454 z" />
        </g>
        <text
           xml:space="preserve"
           style="font-style:normal;font-variant:normal;font-weight:normal;font-stretch:normal;font-size:27.92730713px;line-height:1.25;font-family:'TeX Gyre Pagella';-inkscape-font-specification:'TeX Gyre Pagella';letter-spacing:0px;word-spacing:0px;fill:#1a1a1a;fill-opacity:1;stroke:none;stroke-width:2.15762186"
           x="55.069374"
           y="158.62672"
           id="text4540"><tspan
             sodipodi:role="line"
             id="tspan4538"
             x="55.069374"
             y="158.62672"
             style="font-style:normal;font-variant:normal;font-weight:normal;font-stretch:normal;font-family:'TeX Gyre Pagella';-inkscape-font-specification:'TeX Gyre Pagella';fill:#1a1a1a;fill-opacity:1;stroke-width:2.15762186">trackintel</tspan></text>
      </g>
    </g>
    <rect
       style="font-style:normal;font-weight:normal;font-size:123.61361694px;line-height:1.25;font-family:sans-serif;letter-spacing:0px;word-spacing:0px;opacity:1;fill:#2d7fb8;fill-opacity:1;stroke:none;stroke-width:5;stroke-linecap:butt;stroke-linejoin:round;stroke-miterlimit:4;stroke-dasharray:none;stroke-dashoffset:0;stroke-opacity:1"
       id="rect4617"
       width="168.91434"
       height="144.86009"
       x="239.4735"
       y="-178.47249" />
  </g>
</svg>
