<?xml version="1.0" encoding="UTF-8"?><svg xmlns="http://www.w3.org/2000/svg" xmlns:xlink="http://www.w3.org/1999/xlink" fill-opacity="1" color-rendering="auto" color-interpolation="auto" text-rendering="auto" stroke="black" stroke-linecap="square" width="635" stroke-miterlimit="10" shape-rendering="auto" stroke-opacity="1" fill="black" stroke-dasharray="none" font-weight="normal" stroke-width="1" height="844" font-family="'Dialog'" font-style="normal" stroke-linejoin="miter" font-size="12px" stroke-dashoffset="0" image-rendering="auto">
  <!--Generated by ySVG 2.5-->
  <defs id="genericDefs"/>
  <g>
    <defs id="defs1">
      <clipPath clipPathUnits="userSpaceOnUse" id="clipPath1">
        <path d="M0 0 L635 0 L635 844 L0 844 L0 0 Z"/>
      </clipPath>
      <clipPath clipPathUnits="userSpaceOnUse" id="clipPath2">
        <path d="M-4 -15 L631 -15 L631 829 L-4 829 L-4 -15 Z"/>
      </clipPath>
    </defs>
    <g fill="white" text-rendering="geometricPrecision" shape-rendering="geometricPrecision" transform="translate(4,15)" stroke="white">
      <rect x="-4" width="635" height="844" y="-15" clip-path="url(#clipPath2)" stroke="none"/>
    </g>
    <g fill="white" text-rendering="geometricPrecision" shape-rendering="geometricPrecision" transform="matrix(1,0,0,1,4,15)" stroke="white">
      <rect x="194.8" width="122.8" height="30" y="0" clip-path="url(#clipPath2)" stroke="none"/>
    </g>
    <g text-rendering="geometricPrecision" stroke-miterlimit="1.45" shape-rendering="geometricPrecision" transform="matrix(1,0,0,1,4,15)" stroke-linecap="butt">
      <rect fill="none" x="194.8" width="122.8" height="30" y="0" clip-path="url(#clipPath2)"/>
      <text x="244.5311" xml:space="preserve" y="19.7139" clip-path="url(#clipPath2)" font-family="sans-serif" stroke="none">start</text>
    </g>
    <g fill="white" text-rendering="geometricPrecision" shape-rendering="geometricPrecision" transform="matrix(1,0,0,1,4,15)" stroke="white">
      <rect x="194.8" width="122.8" height="30" y="70" clip-path="url(#clipPath2)" stroke="none"/>
    </g>
    <g text-rendering="geometricPrecision" stroke-miterlimit="1.45" shape-rendering="geometricPrecision" transform="matrix(1,0,0,1,4,15)" stroke-linecap="butt">
      <rect fill="none" x="194.8" width="122.8" height="30" y="70" clip-path="url(#clipPath2)"/>
      <text x="211.5193" xml:space="preserve" y="89.7139" clip-path="url(#clipPath2)" font-family="sans-serif" stroke="none">go to first activity</text>
    </g>
    <g fill="white" text-rendering="geometricPrecision" shape-rendering="geometricPrecision" transform="matrix(1,0,0,1,4,15)" stroke="white">
      <rect x="194.8" width="122.8" height="30" y="180" clip-path="url(#clipPath2)" stroke="none"/>
    </g>
    <g text-rendering="geometricPrecision" stroke-miterlimit="1.45" shape-rendering="geometricPrecision" transform="matrix(1,0,0,1,4,15)" stroke-linecap="butt">
      <rect fill="none" x="194.8" width="122.8" height="30" y="180" clip-path="url(#clipPath2)"/>
      <text x="209.5213" xml:space="preserve" y="199.7139" clip-path="url(#clipPath2)" font-family="sans-serif" stroke="none">check if trip starts</text>
    </g>
    <g fill="white" text-rendering="geometricPrecision" shape-rendering="geometricPrecision" transform="matrix(1,0,0,1,4,15)" stroke="white">
      <rect x="194.8" width="122.8" height="30" y="783.5059" clip-path="url(#clipPath2)" stroke="none"/>
    </g>
    <g text-rendering="geometricPrecision" stroke-miterlimit="1.45" shape-rendering="geometricPrecision" transform="matrix(1,0,0,1,4,15)" stroke-linecap="butt">
      <rect fill="none" x="194.8" width="122.8" height="30" y="783.5059" clip-path="url(#clipPath2)"/>
      <text x="229.8533" xml:space="preserve" y="803.2197" clip-path="url(#clipPath2)" font-family="sans-serif" stroke="none">next entry</text>
    </g>
    <g fill="white" text-rendering="geometricPrecision" shape-rendering="geometricPrecision" transform="matrix(1,0,0,1,4,15)" stroke="white">
      <rect x="194.8" width="122.8" height="30" y="258.7012" clip-path="url(#clipPath2)" stroke="none"/>
    </g>
    <g text-rendering="geometricPrecision" stroke-miterlimit="1.45" shape-rendering="geometricPrecision" transform="matrix(1,0,0,1,4,15)" stroke-linecap="butt">
      <rect fill="none" x="194.8" width="122.8" height="30" y="258.7012" clip-path="url(#clipPath2)"/>
      <text x="231.8543" xml:space="preserve" y="278.415" clip-path="url(#clipPath2)" font-family="sans-serif" stroke="none">set origin</text>
    </g>
    <g fill="white" text-rendering="geometricPrecision" shape-rendering="geometricPrecision" transform="matrix(1,0,0,1,4,15)" stroke="white">
      <rect x="194.8" width="122.8" height="30" y="328.7012" clip-path="url(#clipPath2)" stroke="none"/>
    </g>
    <g text-rendering="geometricPrecision" stroke-miterlimit="1.45" shape-rendering="geometricPrecision" transform="matrix(1,0,0,1,4,15)" stroke-linecap="butt">
      <rect fill="none" x="194.8" width="122.8" height="30" y="328.7012" clip-path="url(#clipPath2)"/>
      <text x="229.8533" xml:space="preserve" y="348.415" clip-path="url(#clipPath2)" font-family="sans-serif" stroke="none">next entry</text>
    </g>
    <g fill="white" text-rendering="geometricPrecision" shape-rendering="geometricPrecision" transform="matrix(1,0,0,1,4,15)" stroke="white">
      <rect x="194.8" width="122.8" height="30" y="398.7012" clip-path="url(#clipPath2)" stroke="none"/>
    </g>
    <g text-rendering="geometricPrecision" stroke-miterlimit="1.45" shape-rendering="geometricPrecision" transform="matrix(1,0,0,1,4,15)" stroke-linecap="butt">
      <rect fill="none" x="194.8" width="122.8" height="30" y="398.7012" clip-path="url(#clipPath2)"/>
      <text x="224.1814" xml:space="preserve" y="418.415" clip-path="url(#clipPath2)" font-family="sans-serif" stroke="none">check if gap</text>
    </g>
    <g fill="white" text-rendering="geometricPrecision" shape-rendering="geometricPrecision" transform="matrix(1,0,0,1,4,15)" stroke="white">
      <rect x="194.8" width="122.8" height="30" y="477.4023" clip-path="url(#clipPath2)" stroke="none"/>
    </g>
    <g text-rendering="geometricPrecision" stroke-miterlimit="1.45" shape-rendering="geometricPrecision" transform="matrix(1,0,0,1,4,15)" stroke-linecap="butt">
      <rect fill="none" x="194.8" width="122.8" height="30" y="477.4023" clip-path="url(#clipPath2)"/>
      <text x="211.1795" xml:space="preserve" y="497.1162" clip-path="url(#clipPath2)" font-family="sans-serif" stroke="none">check if trip ends</text>
    </g>
    <g fill="white" text-rendering="geometricPrecision" shape-rendering="geometricPrecision" transform="matrix(1,0,0,1,4,15)" stroke="white">
      <rect x="440.2306" width="132.4" height="30" y="556.1035" clip-path="url(#clipPath2)" stroke="none"/>
    </g>
    <g text-rendering="geometricPrecision" stroke-miterlimit="1.45" shape-rendering="geometricPrecision" transform="matrix(1,0,0,1,4,15)" stroke-linecap="butt">
      <rect fill="none" x="440.2306" width="132.4" height="30" y="556.1035" clip-path="url(#clipPath2)"/>
      <text x="444.4003" xml:space="preserve" y="575.8174" clip-path="url(#clipPath2)" font-family="sans-serif" stroke="none">add entry to current trip</text>
    </g>
    <g fill="white" text-rendering="geometricPrecision" shape-rendering="geometricPrecision" transform="matrix(1,0,0,1,4,15)" stroke="white">
      <rect x="194.8" width="122.8" height="30" y="556.1035" clip-path="url(#clipPath2)" stroke="none"/>
    </g>
    <g text-rendering="geometricPrecision" stroke-miterlimit="1.45" shape-rendering="geometricPrecision" transform="matrix(1,0,0,1,4,15)" stroke-linecap="butt">
      <rect fill="none" x="194.8" width="122.8" height="30" y="556.1035" clip-path="url(#clipPath2)"/>
      <text x="223.8592" xml:space="preserve" y="575.8174" clip-path="url(#clipPath2)" font-family="sans-serif" stroke="none">trip is empty</text>
    </g>
    <g fill="white" text-rendering="geometricPrecision" shape-rendering="geometricPrecision" transform="matrix(1,0,0,1,4,15)" stroke="white">
      <rect x="194.8" width="122.8" height="30" y="634.8047" clip-path="url(#clipPath2)" stroke="none"/>
    </g>
    <g text-rendering="geometricPrecision" stroke-miterlimit="1.45" shape-rendering="geometricPrecision" transform="matrix(1,0,0,1,4,15)" stroke-linecap="butt">
      <rect fill="none" x="194.8" width="122.8" height="30" y="634.8047" clip-path="url(#clipPath2)"/>
      <text x="211.1766" xml:space="preserve" y="654.5186" clip-path="url(#clipPath2)" font-family="sans-serif" stroke="none">trip contains legs</text>
    </g>
    <g fill="white" text-rendering="geometricPrecision" shape-rendering="geometricPrecision" transform="matrix(1,0,0,1,4,15)" stroke="white">
      <rect x="42" width="122.8" height="30" y="713.5059" clip-path="url(#clipPath2)" stroke="none"/>
    </g>
    <g text-rendering="geometricPrecision" stroke-miterlimit="1.45" shape-rendering="geometricPrecision" transform="matrix(1,0,0,1,4,15)" stroke-linecap="butt">
      <rect fill="none" x="42" width="122.8" height="30" y="713.5059" clip-path="url(#clipPath2)"/>
      <text x="69.7115" xml:space="preserve" y="733.2197" clip-path="url(#clipPath2)" font-family="sans-serif" stroke="none">generate trip</text>
    </g>
    <g fill="white" text-rendering="geometricPrecision" shape-rendering="geometricPrecision" transform="matrix(1,0,0,1,4,15)" stroke="white">
      <rect x="194.8" width="122.8" height="30" y="713.5059" clip-path="url(#clipPath2)" stroke="none"/>
    </g>
    <g text-rendering="geometricPrecision" stroke-miterlimit="1.45" shape-rendering="geometricPrecision" transform="matrix(1,0,0,1,4,15)" stroke-linecap="butt">
      <rect fill="none" x="194.8" width="122.8" height="30" y="713.5059" clip-path="url(#clipPath2)"/>
      <text x="212.5184" xml:space="preserve" y="733.2197" clip-path="url(#clipPath2)" font-family="sans-serif" stroke="none">reset current trip</text>
      <path fill="none" d="M256.2 30 L256.2 61.9609" clip-path="url(#clipPath2)"/>
      <path d="M256.2 69.9609 L261.2 57.9609 L256.2 60.9609 L251.2 57.9609 Z" clip-path="url(#clipPath2)" stroke="none"/>
      <path fill="none" d="M256.2 100 L256.2 171.9609" clip-path="url(#clipPath2)"/>
      <path d="M256.2 179.9609 L261.2 167.9609 L256.2 170.9609 L251.2 167.9609 Z" clip-path="url(#clipPath2)" stroke="none"/>
      <path fill="none" d="M317.6 195 L605.6611 195 L605.6611 798.5059 L325.6 798.5059" clip-path="url(#clipPath2)"/>
      <path d="M317.6 798.5059 L329.6 803.5059 L326.6 798.5059 L329.6 793.5059 Z" clip-path="url(#clipPath2)" stroke="none"/>
      <rect x="595.9912" y="487.4023" clip-path="url(#clipPath2)" fill="white" width="19.3398" height="18.7012" stroke="none"/>
      <rect stroke-linecap="square" x="595.9912" y="487.4023" clip-path="url(#clipPath2)" fill="none" width="19.3398" height="18.7012" stroke-miterlimit="1.6"/>
      <text x="597.9912" xml:space="preserve" y="501.4668" clip-path="url(#clipPath2)" font-family="sans-serif" stroke="none">No</text>
      <path fill="none" d="M194.7551 798.5059 L11 798.5059 L11 140 L256.2 140 L256.2 171.9609" clip-path="url(#clipPath2)"/>
      <path d="M256.2 179.9609 L261.2 167.9609 L256.2 170.9609 L251.2 167.9609 Z" clip-path="url(#clipPath2)" stroke="none"/>
      <path fill="none" d="M256.2 210 L256.2 250.6536" clip-path="url(#clipPath2)"/>
      <path d="M256.2 258.6536 L261.2 246.6536 L256.2 249.6536 L251.2 246.6536 Z" clip-path="url(#clipPath2)" stroke="none"/>
      <rect x="244.8631" y="225" clip-path="url(#clipPath2)" fill="white" width="22.6738" height="18.7012" stroke="none"/>
      <rect stroke-linecap="square" x="244.8631" y="225" clip-path="url(#clipPath2)" fill="none" width="22.6738" height="18.7012" stroke-miterlimit="1.6"/>
      <text x="246.8631" xml:space="preserve" y="239.0645" clip-path="url(#clipPath2)" font-family="sans-serif" stroke="none">yes</text>
      <path fill="none" d="M256.2 288.7012 L256.2 320.6621" clip-path="url(#clipPath2)"/>
      <path d="M256.2 328.6621 L261.2 316.6621 L256.2 319.6621 L251.2 316.6621 Z" clip-path="url(#clipPath2)" stroke="none"/>
      <path fill="none" d="M256.2 358.7012 L256.2 390.6621" clip-path="url(#clipPath2)"/>
      <path d="M256.2 398.6621 L261.2 386.6621 L256.2 389.6621 L251.2 386.6621 Z" clip-path="url(#clipPath2)" stroke="none"/>
      <path fill="none" d="M256.2 428.7012 L256.2 469.3548" clip-path="url(#clipPath2)"/>
      <path d="M256.2 477.3548 L261.2 465.3548 L256.2 468.3548 L251.2 465.3548 Z" clip-path="url(#clipPath2)" stroke="none"/>
      <rect x="246.5301" y="443.7012" clip-path="url(#clipPath2)" fill="white" width="19.3398" height="18.7012" stroke="none"/>
      <rect stroke-linecap="square" x="246.5301" y="443.7012" clip-path="url(#clipPath2)" fill="none" width="19.3398" height="18.7012" stroke-miterlimit="1.6"/>
      <text x="248.5301" xml:space="preserve" y="457.7656" clip-path="url(#clipPath2)" font-family="sans-serif" stroke="none">No</text>
      <path fill="none" d="M317.6 492.4023 L397.6 492.4023 L397.6 571.1035 L432.1889 571.1035" clip-path="url(#clipPath2)"/>
      <path d="M440.1889 571.1035 L428.1889 566.1035 L431.1889 571.1035 L428.1889 576.1035 Z" clip-path="url(#clipPath2)" stroke="none"/>
      <rect x="352.4926" y="483.0518" clip-path="url(#clipPath2)" fill="white" width="19.3398" height="18.7012" stroke="none"/>
      <rect stroke-linecap="square" x="352.4926" y="483.0518" clip-path="url(#clipPath2)" fill="none" width="19.3398" height="18.7012" stroke-miterlimit="1.6"/>
      <text x="354.4926" xml:space="preserve" y="497.1162" clip-path="url(#clipPath2)" font-family="sans-serif" stroke="none">No</text>
      <path fill="none" d="M506.4305 556.0776 L506.4305 343.7012 L325.6 343.7012" clip-path="url(#clipPath2)"/>
      <path d="M317.6 343.7012 L329.6 348.7012 L326.6 343.7012 L329.6 338.7012 Z" clip-path="url(#clipPath2)" stroke="none"/>
      <path fill="none" d="M194.7609 413.7012 L154.8 413.7012 L154.8 571.1035 L186.7609 571.1035" clip-path="url(#clipPath2)"/>
      <path d="M194.7609 571.1035 L182.7609 566.1035 L185.7609 571.1035 L182.7609 576.1035 Z" clip-path="url(#clipPath2)" stroke="none"/>
      <rect x="143.4631" y="483.0518" clip-path="url(#clipPath2)" fill="white" width="22.6738" height="18.7012" stroke="none"/>
      <rect stroke-linecap="square" x="143.4631" y="483.0518" clip-path="url(#clipPath2)" fill="none" width="22.6738" height="18.7012" stroke-miterlimit="1.6"/>
      <text x="145.4631" xml:space="preserve" y="497.1162" clip-path="url(#clipPath2)" font-family="sans-serif" stroke="none">yes</text>
      <path fill="none" d="M256.2 507.4023 L256.2 548.056" clip-path="url(#clipPath2)"/>
      <path d="M256.2 556.056 L261.2 544.056 L256.2 547.056 L251.2 544.056 Z" clip-path="url(#clipPath2)" stroke="none"/>
      <rect x="244.8631" y="522.4023" clip-path="url(#clipPath2)" fill="white" width="22.6738" height="18.7012" stroke="none"/>
      <rect stroke-linecap="square" x="244.8631" y="522.4023" clip-path="url(#clipPath2)" fill="none" width="22.6738" height="18.7012" stroke-miterlimit="1.6"/>
      <text x="246.8631" xml:space="preserve" y="536.4668" clip-path="url(#clipPath2)" font-family="sans-serif" stroke="none">yes</text>
      <path fill="none" d="M256.2 586.1035 L256.2 626.7571" clip-path="url(#clipPath2)"/>
      <path d="M256.2 634.7571 L261.2 622.7571 L256.2 625.7571 L251.2 622.7571 Z" clip-path="url(#clipPath2)" stroke="none"/>
      <rect x="246.5301" y="601.1035" clip-path="url(#clipPath2)" fill="white" width="19.3398" height="18.7012" stroke="none"/>
      <rect stroke-linecap="square" x="246.5301" y="601.1035" clip-path="url(#clipPath2)" fill="none" width="19.3398" height="18.7012" stroke-miterlimit="1.6"/>
      <text x="248.5301" xml:space="preserve" y="615.168" clip-path="url(#clipPath2)" font-family="sans-serif" stroke="none">No</text>
      <path fill="none" d="M194.7554 649.8047 L103.4 649.8047 L103.4 705.4747" clip-path="url(#clipPath2)"/>
      <path d="M103.4 713.4747 L108.4 701.4747 L103.4 704.4747 L98.4 701.4747 Z" clip-path="url(#clipPath2)" stroke="none"/>
      <rect x="133.2006" y="640.4541" clip-path="url(#clipPath2)" fill="white" width="22.6738" height="18.7012" stroke="none"/>
      <rect stroke-linecap="square" x="133.2006" y="640.4541" clip-path="url(#clipPath2)" fill="none" width="22.6738" height="18.7012" stroke-miterlimit="1.6"/>
      <text x="135.2006" xml:space="preserve" y="654.5186" clip-path="url(#clipPath2)" font-family="sans-serif" stroke="none">yes</text>
      <path fill="none" d="M41.9697 728.5059 L11 728.5059 L11 140 L256.2 140 L256.2 171.9609" clip-path="url(#clipPath2)"/>
      <path d="M256.2 179.9609 L261.2 167.9609 L256.2 170.9609 L251.2 167.9609 Z" clip-path="url(#clipPath2)" stroke="none"/>
      <path fill="none" d="M317.6 571.1035 L357.6 571.1035 L357.6 728.5059 L325.6 728.5059" clip-path="url(#clipPath2)"/>
      <path d="M317.6 728.5059 L329.6 733.5059 L326.6 728.5059 L329.6 723.5059 Z" clip-path="url(#clipPath2)" stroke="none"/>
      <rect x="346.2631" y="640.4541" clip-path="url(#clipPath2)" fill="white" width="22.6738" height="18.7012" stroke="none"/>
      <rect stroke-linecap="square" x="346.2631" y="640.4541" clip-path="url(#clipPath2)" fill="none" width="22.6738" height="18.7012" stroke-miterlimit="1.6"/>
      <text x="348.2631" xml:space="preserve" y="654.5186" clip-path="url(#clipPath2)" font-family="sans-serif" stroke="none">yes</text>
      <path fill="none" d="M256.2 664.8047 L256.2 705.4583" clip-path="url(#clipPath2)"/>
      <path d="M256.2 713.4583 L261.2 701.4583 L256.2 704.4583 L251.2 701.4583 Z" clip-path="url(#clipPath2)" stroke="none"/>
      <rect x="246.5301" y="679.8047" clip-path="url(#clipPath2)" fill="white" width="19.3398" height="18.7012" stroke="none"/>
      <rect stroke-linecap="square" x="246.5301" y="679.8047" clip-path="url(#clipPath2)" fill="none" width="19.3398" height="18.7012" stroke-miterlimit="1.6"/>
      <text x="248.5301" xml:space="preserve" y="693.8691" clip-path="url(#clipPath2)" font-family="sans-serif" stroke="none">No</text>
      <path fill="none" d="M256.2 743.5059 L256.2 775.4668" clip-path="url(#clipPath2)"/>
      <path d="M256.2 783.4668 L261.2 771.4668 L256.2 774.4668 L251.2 771.4668 Z" clip-path="url(#clipPath2)" stroke="none"/>
    </g>
  </g>
</svg>
